<?xml version="1.0" encoding="UTF-8" standalone="no"?>
<!-- Created with Inkscape (http://www.inkscape.org/) -->
<svg
   xmlns:svg="http://www.w3.org/2000/svg"
   xmlns="http://www.w3.org/2000/svg"
   version="1.0"
   width="96.596252"
   height="62.285"
   id="svg2">
  <defs
     id="defs4" />
  <g
     transform="translate(-375.60098,-181.98725)"
     id="layer1">
    <path
       d="M 448.84348,181.98725 L 375.60098,181.98725 L 375.60098,219.4035 L 416.17348,219.4035 L 416.17348,206.1585 L 424.91973,206.1585 C 428.59973,206.1585 432.47973,208.06475 432.49473,212.8235 L 432.49473,219.4035 L 472.19723,219.4035 C 472.19723,209.35725 467.28973,204.12725 456.57598,201.73975 C 460.71348,201.2985 464.46348,200.85725 467.83223,198.65475 C 470.62723,196.581 473.42473,191.0085 467.76098,186.236 C 463.77848,183.10975 456.73098,181.98725 448.84348,181.98725 z M 427.98473,197.13475 L 416.23098,197.13475 L 416.23098,191.53725 C 420.12598,191.53725 424.02098,191.53725 427.92848,191.53725 C 429.55723,191.52225 430.58348,191.77725 431.75348,192.7735 C 432.59473,193.541 432.66723,195.13225 431.75348,196.03975 C 430.72598,196.8785 429.45598,197.13475 427.98473,197.13475"
       id="path2426"
       style="fill:#006bb6;fill-opacity:1;fill-rule:evenodd;stroke:none" />
    <path
       d="M 375.60098,244.27225 L 472.19598,244.27225 L 472.19598,222.5285 L 375.60098,222.5285 L 375.60098,244.27225 z"
       id="path2428"
       style="fill:#a7b1b7;fill-opacity:1;fill-rule:nonzero;stroke:none" />
    <path
       d="M 459.92848,238.55975 C 461.31223,238.55975 462.45348,238.1035 463.33848,237.166 C 464.20848,236.14475 464.76473,235.26225 464.76473,233.79975 C 464.76473,232.34975 464.20848,231.12725 463.33848,230.1735 C 462.39473,229.166 461.06973,228.6535 459.92848,228.6535 C 458.72973,228.6535 457.40348,229.166 456.51723,230.11725 C 455.57848,231.12725 455.00598,232.051 455.00598,233.501 C 455.00598,234.9635 455.57848,236.19975 456.44598,237.166 C 457.34473,238.1035 458.52848,238.55975 459.92848,238.55975 z M 467.87473,233.57225 C 467.87473,234.64975 467.76098,235.7585 467.30223,236.726 C 466.93348,237.676 466.36098,238.57225 465.62098,239.2685 C 464.86473,240.02225 463.96598,240.60475 462.95098,240.9885 C 462.01098,241.28725 460.93973,241.54225 459.92848,241.54225 C 458.97223,241.54225 458.10098,241.34475 457.20348,241.11475 C 456.33348,240.861 455.51973,240.34975 454.81973,239.781 C 453.86598,239.01225 453.10973,238.11725 452.60848,237.0385 C 452.09598,236.0285 451.85348,234.87975 451.85348,233.671 C 451.85348,232.58975 452.03848,231.581 452.48098,230.6135 C 452.85223,229.6785 453.42348,228.7685 454.19348,228.071 C 454.94973,227.31725 455.78973,226.7085 456.80348,226.32225 C 457.81723,225.89725 458.85848,225.726 459.92848,225.726 C 460.93973,225.726 462.01098,225.926 462.95098,226.35225 C 463.96598,226.73475 464.80723,227.3335 465.56348,228.086 C 466.30598,228.7835 466.79098,229.5785 467.21848,230.50225 C 467.65973,231.4685 467.87473,232.49225 467.87473,233.57225 z M 438.54348,241.03225 L 438.54348,225.83975 L 442.65223,225.83975 C 443.80723,225.83975 444.62098,225.96725 445.50473,226.1535 C 446.44598,226.36725 447.07473,226.79225 447.75848,227.361 C 448.64223,227.99975 449.34223,228.896 449.84223,229.9035 C 450.28473,230.99725 450.74098,232.20725 450.74098,233.471 C 450.74098,234.80725 450.29723,236.016 449.79973,237.096 C 449.35723,238.1035 448.65723,239.01225 447.71723,239.70975 C 447.08848,240.14975 446.43223,240.491 445.61973,240.73225 C 445.61973,240.73225 444.04973,241.03225 442.89473,241.03225 L 438.54348,241.03225 z M 441.60973,238.246 L 443.36598,238.246 C 444.14848,238.246 445.44848,237.8635 446.20473,237.096 C 446.94473,236.34225 447.66098,235.07725 447.66098,233.4135 C 447.66098,231.75225 446.90473,230.6135 446.15973,229.84725 C 445.40473,229.07975 444.47973,228.641 443.36598,228.641 L 441.60973,228.641 L 441.60973,238.246 z M 410.56723,241.03225 L 416.54473,225.83975 L 419.61223,225.83975 L 425.34723,241.03225 L 422.10848,241.03225 L 420.85348,237.991 L 415.04723,237.991 L 413.84848,241.03225 L 410.56723,241.03225 z M 420.15473,235.58975 L 418.04223,229.9335 L 415.91848,235.58975 L 420.15473,235.58975 z M 409.32598,230.046 C 408.69848,229.4785 408.14348,229.17975 407.44348,228.92475 C 406.81598,228.6685 405.87348,228.3835 405.13223,228.4985 C 403.76223,228.72475 403.47848,228.85475 402.52098,229.6185 C 401.46473,230.4585 400.76598,231.836 400.76598,233.501 C 400.76598,235.036 401.39473,236.41475 402.40848,237.22225 C 403.37723,237.991 403.40598,238.2185 404.90348,238.4885 C 405.71848,238.62975 406.57223,238.546 407.32848,238.30225 C 408.01223,238.0335 408.82848,237.63475 409.45473,237.051 L 409.45473,240.39225 C 408.75723,240.77475 407.95598,241.046 407.20098,241.15975 C 406.50098,241.3585 405.61723,241.47225 404.78973,241.34475 C 402.40848,240.9735 401.52098,240.5485 399.99598,239.126 C 398.45598,237.706 397.71348,235.77475 397.71348,233.471 C 397.71348,231.18475 398.41223,229.236 399.99598,227.7585 C 401.52098,226.32225 402.60848,225.81225 404.86223,225.556 C 405.68973,225.47225 406.50098,225.59975 407.18598,225.7835 C 407.94223,225.96725 408.74223,226.23975 409.32598,226.59225 L 409.32598,230.046 z M 396.37348,241.03225 L 393.22036,241.03225 L 393.22036,225.8385 L 396.37348,225.8385 L 396.37348,241.03225 z M 384.00473,232.8035 L 384.44598,232.8035 C 385.65848,232.8035 386.47223,232.606 386.85848,232.3635 C 387.28348,232.10725 387.58598,231.16975 387.58598,230.47475 C 387.58598,229.7185 387.31348,229.19475 386.86973,228.881 C 386.41598,228.55475 385.54473,228.4835 384.44598,228.4835 L 384.00473,228.4835 L 384.00473,232.8035 z M 429.32723,232.8035 L 429.77098,232.8035 C 430.98098,232.8035 431.79473,232.606 432.18098,232.3635 C 432.60848,232.10725 432.90848,231.16975 432.90848,230.47475 C 432.90848,229.7185 432.63848,229.19475 432.19473,228.881 C 431.73973,228.55475 430.86848,228.4835 429.77098,228.4835 L 429.32723,228.4835 L 429.32723,232.8035 z M 392.13473,241.03225 L 388.28348,241.03225 L 384.00473,234.64975 L 384.00473,241.03225 L 380.96598,241.03225 L 380.96598,225.83975 L 385.57348,225.83975 C 387.34348,225.83975 388.72723,226.23975 389.61223,226.9335 C 390.49473,227.62975 390.93723,228.69725 390.93723,230.1735 C 390.93723,231.18475 390.72473,232.23475 390.15348,232.9885 C 389.51098,233.6985 388.34098,234.63725 387.38348,234.766 L 392.13473,241.03225 z M 437.45848,241.03225 L 433.60598,241.03225 L 429.32723,234.64975 L 429.32723,241.03225 L 426.28848,241.03225 L 426.28848,225.83975 L 430.89598,225.83975 C 432.66723,225.83975 434.04973,226.23975 434.93348,226.9335 C 435.81723,227.62975 436.26223,228.69725 436.26223,230.1735 C 436.26223,231.18475 436.04723,232.23475 435.47473,232.9885 C 434.83348,233.6985 433.66348,234.63725 432.70848,234.766 L 437.45848,241.03225"
       id="path2430"
       style="fill:#ffffff;fill-opacity:1;fill-rule:evenodd;stroke:none" />
    <path
       d="M 380.80848,219.4035 L 383.89023,219.4035 L 383.89023,181.98725 L 380.80848,181.98725 L 380.80848,219.4035 z"
       id="path2432"
       style="fill:#a7b1b7;fill-opacity:1;fill-rule:nonzero;stroke:none" />
  </g>
</svg>
